HIERARCHY
ROOT Hips
{
  OFFSET 0.849866 78.6569 -0.536788
  CHANNELS 6 Xposition Yposition Zposition Zrotation Xrotation Yrotation
  JOINT Bip01_Pelvis
  {
    OFFSET 0 0 0
    CHANNELS 6 Xposition Yposition Zposition Zrotation Xrotation Yrotation
    JOINT BN_Tail_01
    {
      OFFSET -5.52397 -0.332285 0
      CHANNELS 6 Xposition Yposition Zposition Zrotation Xrotation Yrotation
      JOINT BN_Tail_02
      {
        OFFSET 6.48885 -2.032e-005 0
        CHANNELS 6 Xposition Yposition Zposition Zrotation Xrotation Yrotation
        JOINT BN_Tail_03
        {
          OFFSET 7.08759 1.016e-005 -0.00261112
          CHANNELS 6 Xposition Yposition Zposition Zrotation Xrotation Yrotation
          End Site
          {
            OFFSET 0 0 0
          }
        }
      }
    }
    JOINT Bip01_Spine
    {
      OFFSET 4.02227 0.398968 0
      CHANNELS 6 Xposition Yposition Zposition Zrotation Xrotation Yrotation
      JOINT BN_UpperArm_R_01
      {
        OFFSET 4.84413 -3.22857 -3.65581
        CHANNELS 6 Xposition Yposition Zposition Zrotation Xrotation Yrotation
        JOINT BN_Forearm_R_01
        {
          OFFSET 8.51614 0 0
          CHANNELS 6 Xposition Yposition Zposition Zrotation Xrotation Yrotation
          JOINT BN_hand_R_01
          {
            OFFSET 10.1924 0 0
            CHANNELS 6 Xposition Yposition Zposition Zrotation Xrotation Yrotation
            JOINT BN_Finger_R_02
            {
              OFFSET 14.5949 -1.43855 0.585079
              CHANNELS 6 Xposition Yposition Zposition Zrotation Xrotation Yrotation
              End Site
              {
                OFFSET 0 0 0
              }
            }
            JOINT BN_Finger_R_01
            {
              OFFSET 14.4623 0 0
              CHANNELS 6 Xposition Yposition Zposition Zrotation Xrotation Yrotation
              End Site
              {
                OFFSET 0 0 0
              }
            }
          }
        }
      }
      JOINT BN_UpperArm_L_01
      {
        OFFSET 4.84412 -3.22858 3.65557
        CHANNELS 6 Xposition Yposition Zposition Zrotation Xrotation Yrotation
        JOINT BN_Forearm_L_01
        {
          OFFSET 8.51611 0 0
          CHANNELS 6 Xposition Yposition Zposition Zrotation Xrotation Yrotation
          JOINT BN_hand_L_01
          {
            OFFSET 10.1924 0 0
            CHANNELS 6 Xposition Yposition Zposition Zrotation Xrotation Yrotation
            JOINT BN_Finger_L_01
            {
              OFFSET 14.4623 0 0
              CHANNELS 6 Xposition Yposition Zposition Zrotation Xrotation Yrotation
              End Site
              {
                OFFSET 0 0 0
              }
            }
            JOINT BN_Finger_L_02
            {
              OFFSET 14.5949 1.43855 0.585071
              CHANNELS 6 Xposition Yposition Zposition Zrotation Xrotation Yrotation
              End Site
              {
                OFFSET 0 0 0
              }
            }
          }
        }
      }
      JOINT Bip01_R_Thigh
      {
        OFFSET -4.03411 -0.254132 -3.45377
        CHANNELS 6 Xposition Yposition Zposition Zrotation Xrotation Yrotation
        JOINT Bip01_R_Calf
        {
          OFFSET 3.92618 0 0
          CHANNELS 6 Xposition Yposition Zposition Zrotation Xrotation Yrotation
          JOINT Bip01_R_HorseLink
          {
            OFFSET 6.12319 0 0
            CHANNELS 6 Xposition Yposition Zposition Zrotation Xrotation Yrotation
            JOINT Bip01_R_Foot
            {
              OFFSET 9.94776 0 0
              CHANNELS 6 Xposition Yposition Zposition Zrotation Xrotation Yrotation
              JOINT Bip01_R_Toe3
              {
                OFFSET 0.881252 -0.110953 0.0158496
                CHANNELS 6 Xposition Yposition Zposition Zrotation Xrotation Yrotation
                JOINT Bip01_R_Toe31
                {
                  OFFSET 2.32137 0 0
                  CHANNELS 6 Xposition Yposition Zposition Zrotation Xrotation Yrotation
                  JOINT Bip01_R_Toe32
                  {
                    OFFSET 1.63293 0 0
                    CHANNELS 6 Xposition Yposition Zposition Zrotation Xrotation Yrotation
                    JOINT Bip01_R_Toe3Nub
                    {
                      OFFSET 1.72131 0 0
                      CHANNELS 6 Xposition Yposition Zposition Zrotation Xrotation Yrotation
                      End Site
                      {
                        OFFSET 0 0 0
                      }
                    }
                  }
                }
              }
              JOINT Bip01_R_Toe2
              {
                OFFSET 0.994751 0.967285 -1.09428
                CHANNELS 6 Xposition Yposition Zposition Zrotation Xrotation Yrotation
                JOINT Bip01_R_Toe21
                {
                  OFFSET 2.20201 0 0
                  CHANNELS 6 Xposition Yposition Zposition Zrotation Xrotation Yrotation
                  JOINT Bip01_R_Toe22
                  {
                    OFFSET 1.84925 0 0
                    CHANNELS 6 Xposition Yposition Zposition Zrotation Xrotation Yrotation
                    JOINT Bip01_R_Toe2Nub
                    {
                      OFFSET 1.70976 0 0
                      CHANNELS 6 Xposition Yposition Zposition Zrotation Xrotation Yrotation
                      End Site
                      {
                        OFFSET 0 0 0
                      }
                    }
                  }
                }
              }
              JOINT Bip01_R_Toe1
              {
                OFFSET 1.3748 1.34027 -0.0712419
                CHANNELS 6 Xposition Yposition Zposition Zrotation Xrotation Yrotation
                JOINT Bip01_R_Toe11
                {
                  OFFSET 2.26122 0 0
                  CHANNELS 6 Xposition Yposition Zposition Zrotation Xrotation Yrotation
                  JOINT Bip01_R_Toe12
                  {
                    OFFSET 2.22215 0 0
                    CHANNELS 6 Xposition Yposition Zposition Zrotation Xrotation Yrotation
                    JOINT Bip01_R_Toe1Nub
                    {
                      OFFSET 1.61867 0 0
                      CHANNELS 6 Xposition Yposition Zposition Zrotation Xrotation Yrotation
                      End Site
                      {
                        OFFSET 0 0 0
                      }
                    }
                  }
                }
              }
              JOINT Bip01_R_Toe0
              {
                OFFSET 1.40695 0.687986 0.883783
                CHANNELS 6 Xposition Yposition Zposition Zrotation Xrotation Yrotation
                JOINT Bip01_R_Toe01
                {
                  OFFSET 2.26828 0 0
                  CHANNELS 6 Xposition Yposition Zposition Zrotation Xrotation Yrotation
                  JOINT Bip01_R_Toe02
                  {
                    OFFSET 2.09769 0 0
                    CHANNELS 6 Xposition Yposition Zposition Zrotation Xrotation Yrotation
                    JOINT Bip01_R_Toe0Nub
                    {
                      OFFSET 1.53753 0 0
                      CHANNELS 6 Xposition Yposition Zposition Zrotation Xrotation Yrotation
                      End Site
                      {
                        OFFSET 0 0 0
                      }
                    }
                  }
                }
              }
            }
          }
        }
      }
      JOINT Bip01_L_Thigh
      {
        OFFSET -4.03411 -0.254147 3.45377
        CHANNELS 6 Xposition Yposition Zposition Zrotation Xrotation Yrotation
        JOINT Bip01_L_Calf
        {
          OFFSET 3.92616 0 0
          CHANNELS 6 Xposition Yposition Zposition Zrotation Xrotation Yrotation
          JOINT Bip01_L_HorseLink
          {
            OFFSET 6.1232 0 0
            CHANNELS 6 Xposition Yposition Zposition Zrotation Xrotation Yrotation
            JOINT Bip01_L_Foot
            {
              OFFSET 9.94775 0 0
              CHANNELS 6 Xposition Yposition Zposition Zrotation Xrotation Yrotation
              JOINT Bip01_L_Toe3
              {
                OFFSET 0.881246 -0.110986 -0.0157582
                CHANNELS 6 Xposition Yposition Zposition Zrotation Xrotation Yrotation
                JOINT Bip01_L_Toe31
                {
                  OFFSET 2.32136 0 0
                  CHANNELS 6 Xposition Yposition Zposition Zrotation Xrotation Yrotation
                  JOINT Bip01_L_Toe32
                  {
                    OFFSET 1.63293 0 0
                    CHANNELS 6 Xposition Yposition Zposition Zrotation Xrotation Yrotation
                    JOINT Bip01_L_Toe3Nub
                    {
                      OFFSET 1.7213 0 0
                      CHANNELS 6 Xposition Yposition Zposition Zrotation Xrotation Yrotation
                      End Site
                      {
                        OFFSET 0 0 0
                      }
                    }
                  }
                }
              }
              JOINT Bip01_L_Toe2
              {
                OFFSET 0.994649 0.967162 1.09447
                CHANNELS 6 Xposition Yposition Zposition Zrotation Xrotation Yrotation
                JOINT Bip01_L_Toe21
                {
                  OFFSET 2.202 0 0
                  CHANNELS 6 Xposition Yposition Zposition Zrotation Xrotation Yrotation
                  JOINT Bip01_L_Toe22
                  {
                    OFFSET 1.84926 0 0
                    CHANNELS 6 Xposition Yposition Zposition Zrotation Xrotation Yrotation
                    JOINT Bip01_L_Toe2Nub
                    {
                      OFFSET 1.70976 0 0
                      CHANNELS 6 Xposition Yposition Zposition Zrotation Xrotation Yrotation
                      End Site
                      {
                        OFFSET 0 0 0
                      }
                    }
                  }
                }
              }
              JOINT Bip01_L_Toe1
              {
                OFFSET 1.37483 1.34021 0.0715086
                CHANNELS 6 Xposition Yposition Zposition Zrotation Xrotation Yrotation
                JOINT Bip01_L_Toe11
                {
                  OFFSET 2.26124 0 0
                  CHANNELS 6 Xposition Yposition Zposition Zrotation Xrotation Yrotation
                  JOINT Bip01_L_Toe12
                  {
                    OFFSET 2.22214 0 0
                    CHANNELS 6 Xposition Yposition Zposition Zrotation Xrotation Yrotation
                    JOINT Bip01_L_Toe1Nub
                    {
                      OFFSET 1.61867 0 0
                      CHANNELS 6 Xposition Yposition Zposition Zrotation Xrotation Yrotation
                      End Site
                      {
                        OFFSET 0 0 0
                      }
                    }
                  }
                }
              }
              JOINT Bip01_L_Toe0
              {
                OFFSET 1.40707 0.688009 -0.883564
                CHANNELS 6 Xposition Yposition Zposition Zrotation Xrotation Yrotation
                JOINT Bip01_L_Toe01
                {
                  OFFSET 2.26828 0 0
                  CHANNELS 6 Xposition Yposition Zposition Zrotation Xrotation Yrotation
                  JOINT Bip01_L_Toe02
                  {
                    OFFSET 2.0977 0 0
                    CHANNELS 6 Xposition Yposition Zposition Zrotation Xrotation Yrotation
                    JOINT Bip01_L_Toe0Nub
                    {
                      OFFSET 1.53752 0 0
                      CHANNELS 6 Xposition Yposition Zposition Zrotation Xrotation Yrotation
                      End Site
                      {
                        OFFSET 0 0 0
                      }
                    }
                  }
                }
              }
            }
          }
        }
      }
      JOINT Bip01_Spine1
      {
        OFFSET 4.90674 -0.00437896 0
        CHANNELS 6 Xposition Yposition Zposition Zrotation Xrotation Yrotation
        JOINT Bip01_Neck
        {
          OFFSET 5.56447 -1.28357 0
          CHANNELS 6 Xposition Yposition Zposition Zrotation Xrotation Yrotation
          JOINT Bip01_Neck1
          {
            OFFSET 2.79308 -0.00219964 0
            CHANNELS 6 Xposition Yposition Zposition Zrotation Xrotation Yrotation
            JOINT Bip01_Head
            {
              OFFSET 2.79272 0 0
              CHANNELS 6 Xposition Yposition Zposition Zrotation Xrotation Yrotation
              JOINT BN_Mouth_01
              {
                OFFSET 4.19089 0.0665938 0
                CHANNELS 6 Xposition Yposition Zposition Zrotation Xrotation Yrotation
                End Site
                {
                  OFFSET 0 0 0
                }
              }
              JOINT Bip01_HeadNub
              {
                OFFSET 6.95118 0 0
                CHANNELS 6 Xposition Yposition Zposition Zrotation Xrotation Yrotation
                End Site
                {
                  OFFSET 0 0 0
                }
              }
            }
          }
        }
      }
    }
  }
}
MOTION
Frames:	3
Frame Time:	0.0333333
0.849866 14.5652 0 96.9536 -90 -180 0 0 0 -89.9988 6.18131 -89.9989 -5.52396 -0.332283 5.42101e-020 -21.8985 -2.75803 179.937 6.48885 9.53675e-007 -5.96046e-008 -17.5049 5.26099e-009 3.72315e-008 7.08759 0 -0.000528276 -12.1157 -0.000369965 0.00347776 4.02138 0.39896 2.54001e-006 -2.33277 2.79541e-017 5.21088e-011 4.47644 -4.1544 -0.36784 -63.5334 -63.5599 79.4802 8.51612 0 -1.90735e-006 122.432 77.109 23.4528 10.1924 0 -1.90735e-006 -118.736 -10.6266 13.474 14.5949 -1.43855 0.585078 -20.7599 0.880927 3.03447 14.4623 0 0 -50.39 7.42509 0.965062 4.85599 -3.27139 0.772033 119.379 -62.4711 -101.244 8.51612 8.8818e-016 3.55271e-015 -142.165 -70.4685 7.57482 10.1924 -1.90735e-006 -9.53673e-007 126.015 12.5525 18.0226 14.4623 9.53678e-007 -4.76837e-007 34.612 0.303511 7.87889 14.5949 1.4385 0.585109 5.55611 -3.42646 13.2427 -4.00273 -0.56199 -3.45425 -102.793 2.92022 -174.482 3.92617 0 4.44089e-016 -71.181 -2.41577e-005 -9.89974e-006 6.1232 0 2.38419e-007 103.069 -2.29856e-006 -9.63976e-006 9.94775 0 0 -59.0039 18.423 -3.41196 0.881235 -0.110958 0.0158317 110.21 -3.28659 176.752 2.32136 4.44095e-016 4.47035e-008 46.4406 2.70137e-006 -1.53429e-006 1.63292 2.38423e-007 -2.98023e-008 -54.5976 1.99192e-006 6.71904e-006 1.72129 0 -1.49012e-008 -5.33829e-007 -8.67322e-008 6.78907e-010 0.994719 0.967275 -1.09431 71.6797 -11.0426 25.3265 2.202 0 -4.44089e-016 37.0436 -1.70696e-006 8.4621e-007 1.84924 4.76845e-007 0 -30.305 -1.85911e-005 7.09715e-007 1.70976 4.44098e-016 -4.44089e-016 1.3227e-007 -6.16902e-008 -3.24811e-008 1.37479 1.34027 -0.0712851 79.6945 0.482236 -2.64825 2.26122 2.22048e-016 -5.21541e-008 24.1835 1.4812e-005 5.34532e-006 2.22212 0 -2.98023e-007 -43.5071 -1.61979e-006 -1.28323e-006 1.61867 -8.88196e-016 -1.19209e-007 -2.43723e-007 -9.1778e-007 2.42409e-007 1.40695 0.687993 0.883745 81.4242 5.30024 -42.4985 2.26827 0 4.76837e-007 29.1653 2.50332e-005 -5.30207e-006 2.0977 0 -8.88178e-016 -55.023 -1.83589e-005 2.44443e-006 1.53752 0 -8.88178e-016 -8.23688e-008 9.64485e-006 6.52486e-007 -4.00238 -0.562384 3.45354 -49.7424 -3.99415 178.864 3.92617 0 0 -31.3827 -2.07505e-007 -9.33747e-008 6.1232 -1.77636e-015 0 110.17 5.64621e-006 1.6221e-005 9.94776 8.88183e-016 -4.44089e-016 -50.667 -16.2793 3.29034 0.881238 -0.110963 -0.0158117 110.799 3.25268 -176.834 2.32137 -2.22047e-016 2.38419e-007 54.4402 4.55568e-006 -7.55208e-006 1.63293 2.98028e-008 0 -61.5261 1.05999e-006 3.06237e-006 1.72129 -1.19212e-007 -2.38419e-007 -179.96 -0.000329213 -8.23067e-005 0.994704 0.967279 1.09432 74.9866 9.48058 -25.9179 2.202 0 0 40.0409 1.50054e-006 1.22461e-007 1.84925 -2.38422e-007 -4.44089e-016 -72.6411 -2.72286e-006 -2.64023e-006 1.70976 -4.76848e-007 0 -179.96 0.000208322 -7.62064e-006 1.3748 1.34026 0.0713003 72.3142 -0.819739 2.56561 2.26123 0 3.57628e-007 31.1828 -2.23342e-006 4.75396e-007 2.22213 0 -1.19209e-007 -38.5073 9.4364e-006 7.28044e-006 1.61867 4.44097e-016 2.38419e-007 179.96 0.000208911 -0.000101176 1.40698 0.687974 -0.88372 79.3748 -6.54412 31.2861 2.26828 2.22047e-016 -5.96046e-008 26.1651 -1.75211e-006 -6.03415e-007 2.0977 -1.19211e-007 -1.19209e-007 -61.0221 -1.24173e-005 -7.29144e-006 1.53753 0 7.7486e-007 179.96 0.000207783 -3.7668e-005 4.9056 -0.00427437 -0.00031242 -10.9345 4.11779 -0.104888 5.56288 -1.28305 1.78218e-005 -40.6065 -0.451114 -1.94565 2.79231 -0.00218153 -2.23517e-008 -10.7173 0.00222382 -0.997349 2.79273 0 -2.98023e-008 105.05 -1.74649 2.72057 4.19088 0.0665837 -1.19209e-007 174.839 -0.0516663 179.998 6.95116 3.55272e-015 -2.22045e-016 -1.17075e-006 1.16107e-008 3.06464e-008 
0.849866 13.6606 0.0276869 33.202 -89.8506 116.237 0 0 0 -89.9988 5.85767 -89.9989 -5.52396 -0.332283 -2.74086e-016 -21.6025 -2.709 179.947 6.48885 9.53675e-007 -5.96046e-008 -16.7629 6.3443e-009 3.71823e-008 7.08759 3.55272e-014 -0.000528276 -11.2514 0.000929565 -0.0027855 4.02355 0.374245 2.54001e-006 -2.56491 -0.159491 0.0110251 4.48205 -4.15045 -0.743202 -66.0106 -61.7449 80.5668 8.51612 0 -1.90735e-006 126.51 70.853 12.7047 10.1924 1.42109e-014 -1.90735e-006 -116.122 -8.2391 6.52231 14.5949 -1.43855 0.585078 -25.459 1.01324 10.9138 14.4623 0 -5.32907e-015 -38.1741 2.26896 3.53142 4.85016 -3.27095 1.13979 120.203 -60.1934 -98.7675 8.51612 4.4409e-016 0 -143.272 -50.5715 -3.43738 10.1924 -1.90735e-006 -9.53673e-007 119.87 9.82843 11.8784 14.4623 9.53677e-007 -4.76837e-007 27.8798 -2.8184 19.2058 14.5949 1.4385 0.585109 17.2976 6.70079 17.3147 -4.00273 -0.542374 -3.4572 -113.586 1.76859 -173.682 3.92617 5.32908e-015 0 -89.5618 -1.97393e-005 -1.71536e-005 6.1232 -1.77636e-015 2.38419e-007 110.031 -3.33137e-006 -9.22603e-006 9.94775 -7.99365e-015 -1.33227e-015 -58.2441 18.6279 -3.72949 0.881236 -0.110958 0.0158317 110.199 -3.27594 176.771 2.32136 -3.99685e-015 4.47035e-008 46.4406 3.10356e-006 -1.77554e-006 1.63292 2.38423e-007 -2.98023e-008 -54.5976 2.11027e-006 6.18628e-006 1.72129 2.88665e-015 -1.49012e-008 -5.33829e-007 -8.67321e-008 6.7891e-010 0.994719 0.967274 -1.09431 71.6685 -11.0447 25.3254 2.202 4.44095e-016 -8.88178e-016 37.0436 -2.04158e-006 9.03444e-007 1.84924 4.76845e-007 -1.33227e-015 -30.3054 -0.000122932 0.000179794 1.70976 -4.44098e-016 -8.88178e-016 1.3227e-007 -6.16902e-008 -3.24811e-008 1.37479 1.34027 -0.0712851 79.6846 0.480366 -2.64859 2.26122 -4.88505e-015 -5.21541e-008 24.1835 1.50751e-005 5.35691e-006 2.22212 -5.77325e-015 -2.98023e-007 -43.5071 -8.90692e-006 5.78372e-006 1.61867 7.10556e-015 -1.19209e-007 -2.43723e-007 -9.1778e-007 2.42409e-007 1.40695 0.687993 0.883745 81.4119 5.29716 -42.4995 2.26827 1.99843e-015 4.76837e-007 29.1653 2.59959e-005 -5.74185e-006 2.0977 -1.33229e-015 -5.32907e-015 -55.023 -1.9848e-005 1.48487e-006 1.53753 5.32919e-015 2.66453e-015 -8.23688e-008 9.64485e-006 6.52486e-007 -4.00365 -0.563938 3.45089 -60.9087 -3.67226 178.067 3.92617 2.22045e-015 0 -55.5946 -1.57487e-007 -1.74862e-007 6.1232 1.77636e-015 -4.44089e-016 122.549 8.99523e-006 1.45929e-005 9.94776 -4.885e-015 -8.88178e-016 -49.8803 -16.1962 3.36828 0.881237 -0.110963 -0.0158117 110.799 3.25268 -176.834 2.32137 -9.27047e-015 2.38419e-007 54.4402 4.55465e-006 -7.54189e-006 1.63293 2.98028e-008 1.33227e-015 -61.5261 1.55298e-006 2.79674e-006 1.72129 -1.19212e-007 -2.38419e-007 -179.96 -0.000329213 -8.23067e-005 0.994704 0.96728 1.09432 74.9866 9.48058 -25.9179 2.202 -3.55275e-015 8.88178e-016 40.0409 7.95102e-006 7.79407e-006 1.84925 -2.38422e-007 -8.88178e-016 -72.6411 -3.11932e-006 -2.52518e-006 1.70976 -4.76848e-007 0 -179.96 0.000208322 -7.62064e-006 1.3748 1.34026 0.0713003 72.3142 -0.819739 2.56561 2.26123 1.99842e-015 3.57628e-007 31.1828 2.94948e-006 9.04184e-006 2.22213 -1.55433e-015 -1.19209e-007 -38.5073 9.54147e-006 7.15946e-006 1.61867 4.44097e-016 2.38419e-007 179.96 0.000208911 -0.000101176 1.40698 0.687974 -0.88372 79.3749 -6.5441 31.2861 2.26828 3.10866e-015 -5.96046e-008 26.1651 -1.56033e-006 -2.13511e-007 2.0977 -1.19211e-007 -1.19209e-007 -61.0221 -1.23897e-005 -7.25567e-006 1.53753 8.88198e-016 7.7486e-007 179.96 0.000207783 -3.7668e-005 4.9056 -0.00427437 -0.00031242 -10.7471 4.09395 -0.4793 5.56288 -1.28305 1.78215e-005 -41.2891 0.0803166 -1.8622 2.79231 -0.00218153 -2.23518e-008 -10.3565 0.846434 -2.39588 2.79273 8.88179e-015 -2.98023e-008 104.302 -1.86607 1.48535 4.19088 0.0665837 -1.19211e-007 174.936 -0.0497895 179.998 6.95116 -7.10544e-015 -4.44089e-016 -1.17075e-006 1.16107e-008 3.06464e-008 
0.849866 12.0054 0.0488188 8.11986 -89.6261 91.3611 0 0 0 -89.9987 5.51527 -89.9989 -5.52396 -0.332283 -6.93889e-018 -20.8104 -2.57339 179.947 6.48885 9.53675e-007 -5.96046e-008 -14.8055 1.2159e-008 3.82219e-008 7.08759 1.5099e-013 -0.000528276 -9.50433 0.000348468 0.000148479 4.02567 0.350009 2.54001e-006 -2.81783 -0.39923 0.0313358 4.4961 -4.14593 -1.66064 -71.2341 -57.7296 83.2153 8.51612 2.66454e-015 -1.90735e-006 121.642 54.5293 3.21873 10.1924 1.954e-014 -1.90735e-006 -109.994 -4.15078 -7.43804 14.5949 -1.43855 0.585078 -35.3646 1.20066 28.0583 14.4623 8.88182e-016 -3.55271e-015 -13.9793 -6.69562 9.60545 4.83611 -3.27502 2.03765 119.849 -54.4516 -93.9679 8.51612 1.24345e-014 0 -124.621 -12.9359 -11.3113 10.1924 -1.90735e-006 -9.53674e-007 107.468 3.57791 -0.536928 14.4623 9.53678e-007 -4.76837e-007 17.9499 -6.61825 40.6448 14.5949 1.4385 0.585109 33.5515 23.403 30.4423 -4.00267 -0.522869 -3.4602 -129.899 -0.328274 -172.836 3.92617 3.55272e-015 -4.44089e-016 -116.948 -9.42434e-006 -2.44644e-005 6.1232 1.77636e-015 2.38419e-007 120.375 -4.62176e-006 -8.3285e-006 9.94776 -2.66455e-015 -2.22045e-015 -57.137 18.8516 -4.34927 0.881236 -0.110958 0.0158317 110.188 -3.2655 176.789 2.32136 2.66457e-015 4.47035e-008 46.4406 3.76883e-006 -2.03427e-006 1.63293 2.38422e-007 -2.98023e-008 -54.5976 5.8612e-007 6.45906e-006 1.72129 2.2205e-015 -1.49012e-008 -5.33829e-007 -8.67322e-008 6.78896e-010 0.99472 0.967274 -1.09431 71.6575 -11.0467 25.3243 2.202 -4.44095e-016 -4.44089e-016 37.0436 -2.50734e-006 1.08767e-006 1.84924 4.76845e-007 -4.44089e-016 -30.3057 -0.000230699 0.00036502 1.70976 1.77639e-015 1.33227e-015 1.3227e-007 -6.16902e-008 -3.24811e-008 1.37479 1.34027 -0.0712851 79.6749 0.47853 -2.64892 2.26123 -6.43938e-015 -5.21541e-008 24.1835 1.54926e-005 5.28606e-006 2.22213 -4.44096e-016 -2.98023e-007 -43.5071 -9.48746e-006 5.60491e-006 1.61867 3.55278e-015 -1.19209e-007 -2.43723e-007 -9.1778e-007 2.42409e-007 1.40695 0.687993 0.883745 81.3999 5.29416 -42.5005 2.26827 1.33229e-015 4.76837e-007 29.1653 2.80903e-005 -5.84688e-006 2.0977 7.99373e-015 0 -55.023 -2.21019e-005 2.27629e-007 1.53753 -3.55279e-015 2.66453e-015 -8.23689e-008 9.64485e-006 6.52486e-007 -4.00594 -0.572313 3.44686 -68.6678 -3.37993 177.254 3.92617 -4.4409e-016 1.33227e-015 -81.0402 1.89382e-008 -2.17115e-007 6.1232 1.77636e-015 4.44089e-016 139.539 1.29103e-005 1.1315e-005 9.94776 -6.21728e-015 0 -48.7851 -16.2454 3.70037 0.881238 -0.110963 -0.0158117 110.799 3.25268 -176.834 2.32137 2.94212e-015 2.38419e-007 54.4402 4.8302e-006 -7.32254e-006 1.63293 2.98028e-008 8.88178e-016 -61.5261 1.761e-006 2.68524e-006 1.72129 -1.19212e-007 -2.38419e-007 -179.96 -0.000329213 -8.23067e-005 0.994704 0.967279 1.09432 74.9865 9.48059 -25.9179 2.202 -4.44094e-016 0 40.0409 7.95384e-006 7.79772e-006 1.84925 -2.38422e-007 -8.88178e-016 -72.6411 -1.22934e-005 3.34166e-007 1.70976 -4.76847e-007 8.88178e-016 -179.96 0.000208322 -7.62063e-006 1.3748 1.34026 0.0713003 72.3142 -0.819739 2.56561 2.26123 -1.99842e-015 3.57628e-007 31.1828 -1.83988e-006 1.13685e-006 2.22213 1.33229e-015 -1.19209e-007 -38.5073 9.75748e-006 6.91451e-006 1.61867 8.88194e-016 2.38419e-007 179.96 0.000208911 -0.000101176 1.40698 0.687974 -0.88372 79.3749 -6.5441 31.2861 2.26828 -5.10708e-015 -5.96046e-008 26.1651 -1.76089e-006 -6.20413e-007 2.0977 -1.19211e-007 -1.19209e-007 -61.0221 -1.23216e-005 -7.16063e-006 1.53753 -8.88198e-016 7.7486e-007 179.96 0.000207783 -3.7668e-005 4.9056 -0.00427437 -0.00031242 -10.3695 4.10662 -0.862298 5.56288 -1.28305 1.78214e-005 -40.5347 0.242687 -1.56284 2.79231 -0.00218153 -2.23518e-008 -9.04939 1.37141 -3.32775 2.79273 0 -2.98023e-008 103.036 -1.98598 0.551573 4.19088 0.0665837 -1.19214e-007 175.031 -0.0479279 179.998 6.95116 7.10544e-015 0 -1.17075e-006 1.16107e-008 3.06464e-008 
